<svg xmlns="http://www.w3.org/2000/svg" width="500" height="500"><path fill="#FEFEFE" d="M0 0h500v500H0z"/><path fill="#F7F7F5" d="m246 266 1 2-.937 2.125c-1.443 3.902-1.327 6.71-1.063 10.875.908 2.067.908 2.067 2 4a62.6 62.6 0 0 1 1 18c-1.012 2.332-1.012 2.332-2 4v-8l-.7 2.45c-1.392 4.563-2.686 8.638-5.363 12.613-3.63 2.394-7.074 3.068-11.273 4.058-2.776.916-4.18 1.828-6.226 3.879-2.46 2.93-2.46 2.93-4.438 6l-7-3 2 11-3-3a75 75 0 0 1-.5-7.75c-.076-5.839-.833-10.002-3.5-15.25-1.582-1.751-1.582-1.751-3-3v-2l2.063-1.125c2.776-1.772 4.14-3.182 6.187-5.687 3.168-3.778 6.524-6.213 10.676-8.82 3.617-2.385 6.311-5.306 8.824-8.805 2.17-2.471 3.994-3.771 6.75-5.5 4.066-2.58 6.199-4.861 8.5-9.063"/><path fill="#141317" d="M184.383 287.156c2.978.028 5.702.249 8.617.844l1 2-2.379-.281c-3.361-.231-6.292-.27-9.621.281-3.081 2.192-5.196 4.679-7 8v3l-2 2.563c-1.987 3.414-2.341 4.702-2.437 8.5.141 2.954.447 4.963 1.5 7.75 1.97 2.414 1.97 2.414 5.25 4.375 3.904 2.663 5.976 5.79 8.308 9.859 1.548 3.314 2.526 6.636 3.566 10.14 1.1 3.606 1.1 3.606 2.813 6.813 2.67 2.32 5.223 3.893 8.379 5.473 3.006 1.751 4.609 3.72 6.621 6.527-5.787-1.484-10.219-4.547-15-8l-1-1a52 52 0 0 0-10 0c-2.906 1.423-2.906 1.423-5 3l-2-1c1.375-1.5 1.375-1.5 3-3h2l1-3h2l2-3h2c-.551-3.95-1.39-7.35-3-11l-6 1v-3h3c-.348-1.975-.348-1.975-1-4l-2-1-1.187 3.75c-2.125 4.935-5.234 7.576-9.25 10.938-3.579 3.03-6.56 5.71-8.418 10.085a128 128 0 0 0-2.215 7.293C155 364 155 364 153.383 365.902L152 367l-2-1 1.375-1.437c2.243-3.537 3.342-7.374 3.625-11.563-2.252-2.252-4.135-2.758-7.152-3.598l-1.973-.527c-.659-.182-1.317-.364-1.996-.55A844 844 0 0 0 139 347l3-2c1.938-.047 1.938-.047 4 .25l2.063.266C150 346 150 346 153 348v-2l2.688.313L159 346c3.207-2.624 5.432-5.152 7-9h3v-6h4l-2-8-1.574.84c-7.31 3.797-7.31 3.797-11.426 4.16l-2-1c1.813-1.5 1.813-1.5 4-3h3v-2l3-2c.827-2.468.827-2.468 1-5l-1-2-2 4-1-5-1.375 2.375C160 317 160 317 158 319v-3c-2.468 1.152-4.048 2.048-6 4l-1-2-3 1v2a105 105 0 0 1-5.312 4.563l-2.989 2.44C137 330 137 330 134 331c-1.219 2.504-1.219 2.504-2 5l-5-3-1 2-2 .438-2 .562-1 3h-3c-1.623 2.001-1.623 2.001-3.062 4.5-1.536 2.531-1.536 2.531-2.938 4.5h-2c1.85-5.241 4.642-9.37 8.188-13.625 3.638-3.072 7.443-4.57 11.812-6.375q2.61-1.12 5.188-2.312l2.355-1.051c2.347-1.564 3.456-2.8 5.16-4.985 3.57-4.35 7.844-6.395 12.86-8.777 7.157-3.45 12.15-6.705 16.91-13.207 6.77-9.23 6.77-9.23 11.91-10.512"/><path fill="#0B090B" d="M364 198h15v3l-3 1c-1.585 3.17-1.379 6.637-1.562 10.125L374 220h24v-19h-5l1-3h15l-1 3-3 2a81 81 0 0 0-.512 8.727l-.054 2.614c-.054 2.761-.088 5.522-.122 8.284q-.05 2.805-.103 5.61A2260 2260 0 0 0 404 242h5v3h-16l4-4c.628-2.103.628-2.103.61-4.328l.092-2.185.048-2.737.25-8.75h-24v19h5v3h-15v-2l4-1v-40l-4-1z"/><path fill="#080708" d="M91 198h15v3l-3 1c-1.585 3.17-1.379 6.637-1.562 10.125L101 220h24v-19h-5l1-3h15l-1 3-3 2a81 81 0 0 0-.512 8.727l-.054 2.614c-.054 2.761-.088 5.522-.121 8.284q-.05 2.805-.104 5.61A2260 2260 0 0 0 131 242l5 1v2h-16l4-4c.628-2.103.628-2.103.61-4.328l.092-2.185.048-2.737.25-8.75h-24v19h5v3H91v-2l4-1v-40l-4-1z"/><path fill="#383538" d="M262 268c1.832.648 1.832.648 4 2 1.416 2.506 1.416 2.506 2.691 5.629l1.424 3.385 1.447 3.548q1.425 3.477 2.88 6.942l1.271 3.12L277 295l3 1 1-3c1.785-1.14 1.785-1.14 4.063-2.25 3.48-1.806 6.08-3.694 8.875-6.437 2.18-2.012 3.656-3.188 6.503-4.063a154 154 0 0 1 5.102-.785c2.599-.492 4.455-1.33 6.77-2.59 2.345-1.258 3.834-1.901 6.5-2.375l2.187.5c1.813 2 1.813 2 3 4l-1 2-3-4c-3.558.61-6.683 1.578-10 3-.987 4.737-1.174 8.55.137 13.242L311 295l2.875 1.813C317 299 317 299 318.175 301.367c1.316 3.667 2.464 7.358 3.524 11.106 1.45 4.888 3.193 7.851 6.668 11.562 3.198 3.848 5.674 8.37 7.633 12.965l-1 2c-6.827-7.383-6.827-7.383-9.25-11.812-1.487-3.085-1.487-3.085-3.312-4.688-2.368-2.47-3.286-5.319-4.438-8.5-.187-2.937-.187-2.937 0-5l-1.54.875c-3.493 1.885-5.942 3.088-9.96 3.375L304 313l3-2h3v-2h2l1-3 3 1c-.62-3.465-.62-3.465-2-7-2.504-1.219-2.504-1.219-5-2-.812-2.125-.812-2.125-1-4l-2 2.125c-2.811 2.843-5.946 5.08-9.23 7.348-1.95 1.682-2.782 3.17-3.77 5.527l-1.687-2.562c-1.37-1.827-1.37-1.827-3.313-3.438q-3.06-1.162-6.125-2.312c-2.967-1.462-4.633-2.376-6.875-4.688-4.252-7.022-7.113-14.804-9.97-22.476-1.005-2.702-1.005-2.702-3.03-5.524"/><path fill="#0A080A" d="M338 197h2q3.191 7.92 6.354 15.85 1.077 2.695 2.162 5.387 1.561 3.88 3.105 7.767l.979 2.41c1.804 4.567 2.919 8.693 3.4 13.586h5v3h-16l3-3c.146-2.755.146-2.755-.312-5.687L347 231l-18 1-3 9 5 2v2h-13c1-3 1-3 2.463-4.452 1.714-1.726 2.313-3.038 3.131-5.313l.83-2.266.861-2.434.915-2.514c.962-2.65 1.913-5.304 2.863-7.958q1.433-3.976 2.873-7.948.895-2.471 1.78-4.945c.27-.75.54-1.502.82-2.275l.712-1.992c.804-2.035 1.747-3.96 2.752-5.903"/><path fill="#131013" d="M271 198c3.06-.42 5.04-.652 8 0 2.787 2.209 4.664 4.973 6.688 7.875l1.781 2.426a470 470 0 0 1 3.67 5.089 502 502 0 0 0 5.654 7.743c4.65 6.307 4.65 6.307 6.855 9.367l1.38 1.906L306 234v2h2l-1-34-4-1v-3h12v3h-3l-1 45-5-1c-1.77-1.711-1.77-1.711-3.383-3.945l-1.834-2.495-1.908-2.685-1.98-2.716q-2-2.745-3.982-5.502a957 957 0 0 0-6.774-9.265c-2.054-2.791-4.095-5.593-6.139-8.392l-1 32h4v3h-12v-2l3-2c.338-3.044.49-5.895.512-8.945l.054-2.682c.054-2.833.088-5.665.122-8.498q.05-2.877.103-5.754c.085-4.707.152-9.414.209-14.121h-4z"/><path fill="#090809" d="M159 197h2q3.191 7.92 6.354 15.85 1.076 2.695 2.162 5.387 1.562 3.88 3.105 7.767l.979 2.41c1.804 4.567 2.919 8.693 3.4 13.586h5v3h-16l3-3c.184-2.229.184-2.229-.25-4.562l-.328-2.38c-.34-2.11-.34-2.11-1.422-4.058l-17 1-3 9 5 2v2h-13v-2l1.789-1.59c3.028-3.3 4.129-6.787 5.594-10.972l.91-2.51c.955-2.64 1.894-5.283 2.832-7.928q1.423-3.966 2.853-7.927.888-2.463 1.763-4.929l.81-2.265.704-1.982c.8-2.035 1.74-3.956 2.745-5.897"/><path fill="#0A0809" d="M245 197h2q3.191 7.92 6.354 15.85 1.076 2.695 2.162 5.387 1.561 3.88 3.105 7.767l.979 2.41c1.804 4.567 2.919 8.693 3.4 13.586h5v3h-16l3-3c.184-2.229.184-2.229-.25-4.562l-.328-2.38c-.34-2.11-.34-2.11-1.422-4.058l-17 1-3 9 4 1v3h-12v-2l1.789-1.59c3.028-3.3 4.129-6.787 5.594-10.972l.91-2.51c.955-2.64 1.894-5.283 2.832-7.928q1.423-3.966 2.853-7.927.888-2.463 1.763-4.929l.81-2.265.704-1.982c.8-2.035 1.74-3.956 2.745-5.897"/><path fill="#292523" d="m263 331 2 1c.688 2.438.688 2.438 1 5l-1 2 3 1h-2l-1 5 3 1-2 2 3 2h-4v2l4 1v2h5v-3l-4-1h2v-4l2-1-1-2c.936-2.36 1.933-4.696 3-7h2l.313 3.375L279 344l3 2v3l-2 1-2-1v2l3 1-2 2h3l-.562 1.813c-.659 2.351-.659 2.351.562 5.187h-2v2h3v2h-4v4h-2v-4h-6l1-2h4v-3l-1.75-.437q-2.134-.532-4.25-1.125c-2.31-.58-2.31-.58-6-.438v6h-1l-1-6-9-1 1 1 1 2-3 1-1 1a70 70 0 0 0-.562 4.063L250 370h-1v-5l-6 1 5-5-4 1c-1-3.875-1-3.875-1-5l-2-1 3-2h3v-2l-1.766-.277c-2.766-.895-3.998-2.185-5.984-4.286l-1.86-1.94c-.458-.495-.917-.988-1.39-1.497l1-2 5 5 3-1 2 1c-.776-3.075-.776-3.075-3-5h3l1-6 2 3v3h3l2 6c2.025 0 4.024-.595 6-1a109 109 0 0 0-1-7l-2-1h4z"/><path fill="#130A0C" d="M369 316h2l5 11h-3v2l2 1h-3v2l1.75.438L380 334l1-8c2 2 2 2 2.527 3.875q.411 2.124.813 4.25L385 336l3 2-1 5 2 1-4 4-2-1v5h-1v-6l-5 2 1-2-2-2v-2l-4-1-1 8h-1v-6l-7 1-1 10-4-1v5h-1v-7l-2.375.625L352 352l-2-2 2-1-.5-1.812C351 345 351 345 351 342c1-2.187 1-2.187 2-4l-2-2 3-1-2-2 3-1 1-5c2.34 2.128 3.707 4.116 5 7l7-1c-.342-2.97-.342-2.97-1-6l-2-1 4-6-3-1 1-2 2 1z"/><path fill="#0C090C" d="M181 198h15v3l-3 2c.576 4.254 1.59 7.827 3.285 11.766l1.358 3.195 1.42 3.289q1.397 3.255 2.785 6.516l1.25 2.899C204 233 204 233 204 235h2c.235-1.216.47-2.431.71-3.684 1.406-6.323 3.675-12.312 5.915-18.379l1.273-3.49q1.544-4.226 3.102-8.447h-5l1-3h13v3l-2.347 1.362c-2.78 1.429-2.78 1.429-4.03 4.002l-1.072 2.84-1.248 3.24L216 216l-1.424 3.791c-1.488 3.977-2.94 7.967-4.388 11.959l-1.522 4.172A6843 6843 0 0 0 205 246l-3-1c-1.455-2.661-1.455-2.661-2.96-6.203l-.827-1.92c-.873-2.038-1.73-4.083-2.588-6.127l-1.71-3.992c-4.434-10.382-4.434-10.382-6.338-15.608l-1.304-3.572-1.12-3.19L184 202l-3-1z"/><path fill="#2E2D2E" d="m246 266 1 2-.937 2.125c-1.443 3.902-1.327 6.71-1.063 10.875.908 2.067.908 2.067 2 4a62.6 62.6 0 0 1 1 18c-1.012 2.332-1.012 2.332-2 4v-8l-.7 2.45c-1.392 4.563-2.686 8.638-5.363 12.613-3.63 2.394-7.074 3.068-11.273 4.058-2.776.916-4.18 1.828-6.226 3.879-2.46 2.93-2.46 2.93-4.438 6l-7-3 2 11-3-3a75 75 0 0 1-.5-7.75c-.076-5.839-.833-10.002-3.5-15.25-1.582-1.751-1.582-1.751-3-3v-2l2.063-1.125c2.776-1.772 4.14-3.182 6.187-5.687 3.168-3.778 6.524-6.213 10.676-8.82 3.617-2.385 6.311-5.306 8.824-8.805 2.17-2.471 3.994-3.771 6.75-5.5 4.066-2.58 6.199-4.861 8.5-9.063m-7 12-1 3-3-1-1.8 2.195c-5.206 6.072-9.604 10.158-17.048 13.489L214 297c-.877 2.067-.877 2.067-1 4h-2c-2.195 2.285-2.195 2.285-4 5v3h9l-7 2c.368 4.096.839 8.048 2 12 2.906 2.377 2.906 2.377 6 3l2.188-2.75c4.282-5.098 8.602-7.81 14.812-10.25l2.75-.625L239 311c1.357-2.964 2.14-5.833 3-9l-11 2v-2l3.125-.812c3.524-.998 6.644-2.454 9.875-4.188v-2h2l-2-8-2.687 1C238 289 238 289 233 289l11-4v-2h-2l-.375-1.937L241 279z"/><path fill="#050505" d="M364 198h15v3l-3 1c-1.585 3.17-1.379 6.637-1.562 10.125L374 220h22l1 2-23 1v19h5v3h-15v-2l4-1v-40l-4-1z"/><path fill="#3F3738" d="M289 334c2.108 3.162 2.338 4.507 2.625 8.188l.227 2.73L292 347l3 1 3 1 3-10h2l.332 1.715.48 2.223.458 2.214L305 347l3 1v9l-3 1 3 2h-3v2l2 1h-4v5h-1l-1-5-4-1 1-2 3 1-1-2c-2.017-1.134-2.017-1.134-4-2h5v-2l-4-1 3-3-6-1v4h-2l.563 2.063c.522 3.51.05 6.459-.563 9.937h-2v-6l-4 1 1-2h2l-1-2c-2.025-.652-2.025-.652-4-1v-3l2-1-2-2h4v-2h-3v-3l2-1-2-2h2l.438-2.312C288 337 288 337 289 334"/><path fill="#31282A" d="M356 327c1.848 1.68 2.908 2.715 3.688 5.125L361 334c2.697.676 5.204.82 8 1l-1 7 2 1-7 1-1 10-4-1v5h-1v-7l-2.375.625L352 352l-2-2 2-1-.5-1.812C351 345 351 345 351 342c1-2.187 1-2.187 2-4l-2-2 3-1-2-2 3-1z"/><path fill="#E2E2E1" d="M298 284h7v6l-3 1v4c-1.39 1.852-1.39 1.852-3.25 3.625-.603.59-1.207 1.18-1.828 1.79-1.976 1.63-3.475 2.805-5.922 3.585-2.07-.863-2.07-.863-4.125-2.312l-2.07-1.426L283 299l-2-1v-2l3.625-1.687c2.896-1.433 5.311-2.944 7.75-5.063L295 287h2z"/><path fill="#241E21" d="m248 336 2 3v3h3v5h-2l1 3v2l.563 2 .437 2-1 2 3 1-3 2-1 1a70 70 0 0 0-.562 4.063L250 370h-1v-5l-6 1 5-5-4 1c-1-3.875-1-3.875-1-5l-2-1 3-2h3v-2l-1.766-.277c-2.766-.895-3.998-2.185-5.984-4.286l-1.86-1.94c-.458-.495-.917-.988-1.39-1.497l1-2 5 5 3-1 2 1c-.776-3.075-.776-3.075-3-5h3z"/><path fill="#131516" d="M153 314v2h-2l-1 3h-2v2a105 105 0 0 1-5.312 4.563l-2.989 2.44C137 330 137 330 134 331c-1.219 2.504-1.219 2.504-2 5l-5-3-1 2-2 .438-2 .562-1 3h-3c-1.623 2.001-1.623 2.001-3.062 4.5-1.536 2.531-1.536 2.531-2.938 4.5h-2c1.85-5.241 4.642-9.37 8.188-13.625 3.638-3.072 7.443-4.57 11.812-6.375 5.242-2.25 9.694-4.218 13.375-8.687l1.273-1.762c2.465-2.828 4.649-3.551 8.352-3.551"/><path fill="#F8F8F7" d="M244 208h2a2318 2318 0 0 1 3 8.313l.867 2.38.82 2.295.762 2.11C252 225 252 225 252 228h-14c.499-7.152 3.316-13.413 6-20"/><path fill="#F8F9F7" d="M337 208h2a2318 2318 0 0 1 3 8.313l.867 2.38.82 2.295.762 2.11C345 225 345 225 345 228h-14c.499-7.152 3.316-13.413 6-20M158 208h2a2318 2318 0 0 1 3 8.313l.867 2.38.82 2.295.762 2.11C166 225 166 225 166 228h-14c.499-7.152 3.316-13.413 6-20"/><path fill="#110F12" d="M154 209h3c-.476 3.709-1.318 7.052-2.562 10.563-1.139 3.271-1.777 5.933-1.438 9.437l8 1v1l-11 1-3 9 5 2v2h-13v-2l1.825-1.69c2.72-2.889 3.644-5.531 4.972-9.263l.723-2a870 870 0 0 0 2.23-6.297q.765-2.141 1.535-4.281 1.873-5.23 3.715-10.469"/><path fill="#302B2E" d="M276 337h2l.313 3.375L279 344l3 2v3l-2 1-2-1v2l3 1-2 2h3l-.562 1.813c-.659 2.351-.659 2.351.562 5.187h-2v2h3v2h-4v4h-2v-4h-6l1-2h4v-3l-4-1 1-3h3l-1-4h2v-2l-3-1-2-2 2-1-1-2c.936-2.36 1.933-4.696 3-7"/><path fill="#100E10" d="M240 209h3c-.476 3.709-1.318 7.052-2.562 10.563-1.139 3.271-1.777 5.933-1.438 9.437l8 1v1l-11 1-3 9 4 1v3h-12v-2l1.825-1.69c2.72-2.889 3.644-5.531 4.972-9.263l.723-2a870 870 0 0 0 2.23-6.297q.765-2.141 1.535-4.281 1.873-5.23 3.715-10.469"/><path fill="#111113" d="M213 198h13v3l-2.344 1.355c-2.792 1.44-2.792 1.44-4.062 4.07l-1.094 2.887-1.246 3.2a325 325 0 0 0-2.54 7.32l-.648 1.915c-.602 1.8-1.18 3.608-1.757 5.417L211 230c-2.082 1.177-2.082 1.177-4 2 1.404-7.143 3.574-13.752 6.125-20.562l1.129-3.057q1.365-3.693 2.746-7.381h-5z"/><path fill="#2C2728" d="M289 334c2.108 3.162 2.338 4.507 2.625 8.188l.227 2.73L292 347l3 1h-3l1 3-1 2 2 1h-2l.563 2.063c.522 3.51.05 6.459-.563 9.937h-2v-6l-4 1 1-2h2l-1-2c-2.025-.652-2.025-.652-4-1v-3l2-1-2-2h4v-2h-3v-3l2-1-2-2h2l.438-2.312C288 337 288 337 289 334"/><path fill="#19171A" d="M332 217c1.532 4.084.63 7.795 0 12l14 1v1l-17 1-3 9 5 2v2h-13c1-3 1-3 2.44-4.384 1.943-2.013 2.593-3.839 3.533-6.468l1.037-2.828 1.053-2.945a894 894 0 0 1 2.097-5.79l.926-2.591L330 218z"/><path fill="#161418" d="M184 338h3l.707 2.598c1.181 3.701 2.425 6.989 4.293 10.402 2.674 2.275 5.259 3.845 8.379 5.438 2.984 1.778 4.609 3.759 6.621 6.562-5.787-1.484-10.219-4.547-15-8l-1-1a52 52 0 0 0-10 0c-2.906 1.423-2.906 1.423-5 3l-2-1c1.375-1.5 1.375-1.5 3-3h2l1-3h2l2-3h2c-.486-3.123-.999-5.996-2-9"/><path fill="#302A2B" d="M372 334c5.365.847 10.679 1.917 16 3 0 3 0 3-1 6l2 1-4 4-2-1v5h-1v-6l-5 2 1-2-2-2 2-5-7 1z"/><path fill="#454546" d="M262 268c1.832.648 1.832.648 4 2 1.416 2.506 1.416 2.506 2.691 5.629l1.424 3.385 1.447 3.548q1.425 3.477 2.88 6.942l1.271 3.12L277 295l3 1 1-3c1.785-1.14 1.785-1.14 4.063-2.25 3.597-1.853 6.2-3.836 9.062-6.687 1.945-1.813 1.945-1.813 3.875-3.063 2.885 0 4.34.725 7 2v1l-3.25.25c-3.69.415-3.69.415-5.687 2.438L294 289c-3.464 2.936-6.604 5.593-11 6.875l-2 .125v2l2 1c-2.25-.25-2.25-.25-5-1-3.25-2.765-4.875-5.404-6.508-9.316l-1.3-3.065-1.317-3.182q-1.313-3.128-2.633-6.253l-1.16-2.796c-1.087-2.572-1.087-2.572-3.082-5.388"/><path fill="#3B3B3B" d="m242 306 1 3c-1.12 2.925-1.65 4.04-4 6-3.246 1.172-6.522 2.04-9.855 2.934-3.035 1.029-4.609 1.883-6.833 4.128-2.338 2.892-2.338 2.892-4.312 5.938l-7-3 2 11-3-3c-.432-2.177-.432-2.177-.512-4.668l-.107-2.705-.069-2.815-.103-2.85q-.123-3.48-.209-6.962c2.296 3.445 2.54 5.938 3 10l5 2 2.188-2.75c4.258-5.07 8.582-7.914 14.812-10.25 2.938-.687 2.938-.687 5-1v-4z"/><path fill="#9E9999" d="M334 292h2l2 5 2.809.148 3.628.227 3.622.21L351 298l1 2-13-1-3 12 3 1c3.01 2.785 5.64 5.647 8 9l-1 2-3-3 2 5-4-2v-3l-2.312-.75c-2.688-1.25-2.688-1.25-4.563-3L333 314c.2-3.145.805-5.552 2.063-8.437 1.221-3.34 1.194-6.032.937-9.563-.88-2.354-.88-2.354-2-4"/><path fill="#6F6866" d="M368 336c.563 1.875.563 1.875 1 4l-1 2 2 1-7 1-1 10-4-1v5h-1c-.125-5.75-.125-5.75 1-8l2-1 1-3h-2l-1-7h2v-2c2.709-1.354 5.01-1.065 8-1"/><path fill="#1C1519" d="m263 331 2 1c.688 2.438.688 2.438 1 5l-1 2 3 1h-2l-1 5 3 1-2 2 3 2h-4v2l3 1-2 3-2-1c-2.193-5.087-3.215-9.507-4-15l-2-1h4z"/><path fill="#232023" d="M245 308h1l.563 3.75c1.643 7.557 6.202 13.897 10.437 20.25-2.312.313-2.312.313-5 0-1.625-2.375-1.625-2.375-3-5l-3-2v-2l-10 1v-2c3.508-1.604 6.144-2.22 10-2l-.5-1.5c-.707-3.534-.56-6.897-.5-10.5"/><path fill="#131314" d="M302 285c.563 1.875.563 1.875 1 4l-1 2 3-1c.88 4.22.88 4.22 0 7-2.383 2.327-4.89 4.198-7.617 6.105-2.464 1.728-2.464 1.728-3.703 4.133L293 309l-2.187-2.812c-2.297-2.776-4.582-4.526-7.813-6.188l2-1c2.475 1.114 4.679 2.582 7 4 3.32-2.417 6.348-4.851 9-8 .588-2.615.546-4.568.219-7.215L301 286z"/><path fill="#201923" d="m318 311 1 2h3l1.125 3c1.598 3.753 3.814 6.674 6.309 9.875 2.549 3.458 4.91 7.152 6.566 11.125l-1 2c-6.827-7.383-6.827-7.383-9.25-11.812-1.487-3.085-1.487-3.085-3.312-4.688-2.343-2.445-3.263-5.367-4.438-8.5z"/><path fill="#120B0D" d="M358 337c1.065 3.196 1.074 5.657 1 9h2v5c-3.25.625-3.25.625-7 1-2.437-.937-2.437-.937-4-2l2-1-1-4h5l-1-6z"/><path fill="#383134" d="M276 337h2l.313 3.375L279 344l3 2v3c-2.24.72-3.78 1.032-6.125.688C274 349 274 349 272 347l2-1-1-2c.936-2.36 1.933-4.696 3-7"/><path fill="#2F292F" d="M289 334c2.108 3.162 2.338 4.507 2.625 8.188l.227 2.73L292 347l3 1c-2.736.947-4.317.957-7.25.563L285 348v-3l2-1-2-2h2l.438-2.312C288 337 288 337 289 334"/><path fill="#0D0E0F" d="M153 314v2h-2l-1 3h-2v2a96 96 0 0 1-5 4.125l-2.812 2.195L138 329l-1-4 2.25-1.687c2.806-2.2 2.806-2.2 4.813-4.938 1.937-2.375 1.937-2.375 4-3.687C150 314 150 314 153 314"/><path fill="#6D6F6D" d="M372 334c5.365.847 10.679 1.917 16 3l-1 2c-5.197 1.182-10.696 1.113-16 1z"/><path fill="#6F6966" d="M184.469 287.11c2.973.014 5.633.243 8.531.89l1 2-2.379-.281c-3.361-.231-6.292-.27-9.621.281-3.081 2.192-5.196 4.679-7 8v3l-1.937 2.875c-1.932 2.927-2.66 4.705-3.063 8.125h-1c-.89-3.58-.855-6.404 0-10 3.37-6.325 8.339-13.06 15.469-14.89"/><path fill="#595B5C" d="M142 345c1.938-.047 1.938-.047 4 .25l2.063.266C150 346 150 346 153 348v-2h5l-2 7-3-2c-2.38-.76-4.779-1.462-7.187-2.125l-1.983-.55q-2.414-.67-4.83-1.325z"/><path fill="#343033" d="m243 277 2 4 1.125 1.938c1.05 2.473 1.023 4.402.875 7.062h-2l-1 2v-5l-2.625 1.5c-3.482 1.548-5.623 1.768-9.375 1.5l1-2c3.984-1.955 6.523-3 11-3v-2h-2z"/><path fill="#1C1C1C" d="m246 266 1 2a111 111 0 0 1-1.937 6.625l-1.153 3.602L243 281l-4-2-1 2-4-2c2.096-2.173 4.15-4.113 6.563-5.937 2.54-2.15 3.894-4.14 5.437-7.063"/><path fill="#BBBFBE" d="M278 349c2.25-.187 2.25-.187 5 0 2.313 1.313 2.313 1.313 4 3v3l-1 1 3 1v1l-2.375.375L284 359l-2 2v-2l-2-1 2-4-4 1z"/><path fill="#2B2428" d="M177 325c1.797.648 1.797.648 4 2 1.703 2.602 1.703 2.602 3.25 5.625l1.578 3.04L187 338l-2 1-2-1v-2l-6 1v-3h3c-.286-1.897-.286-1.897-1-4-1.479-1.73-1.479-1.73-3-3z"/><path fill="#5C5253" d="M369 316h2l5 11h-3l-1 2-1-3-5-1 3-5-3-1 1-2 2 1z"/><path fill="#ABB6B5" d="M294 350h6v3l-2 1 3 1v2l-7 1v2l-2-1v-7h2z"/><path fill="#2A2727" d="M160 344h2l1 3-1.687 1.938c-2.919 3.865-3.945 7.704-5.286 12.32C155 364 155 364 153.38 365.868L152 367l-2-1 1.375-1.527c2.436-3.707 3.12-7.807 4.086-12.073.68-2.805 1.273-5.051 3.039-7.365z"/><path fill="#201E20" d="m119 333 7 1-1.937.813L122 336l-1 3h-3c-1.623 2.001-1.623 2.001-3.062 4.5-1.536 2.531-1.536 2.531-2.938 4.5h-2c2-5.666 5.362-10.27 9-15"/><path fill="#2B282B" d="m160 309 2 1-3 9-1-3c-2.468 1.152-4.048 2.048-6 4l-1-4h2l-1-3q1.931-1.044 3.875-2.062l2.18-1.16z"/><path fill="#818085" d="M184 347c1.875.188 1.875.188 4 1 1.25 2.563 1.25 2.563 2 5l-1.793.113c-4.909.409-8.034 1.105-12.207 3.887l-2-1c1.375-1.5 1.375-1.5 3-3h2l1-3h2z"/><path fill="#3B393B" d="m317 305 3 1 1 7h-2l-1-4-1.54.875c-3.493 1.885-5.942 3.088-9.96 3.375L304 313l3-2h3v-2h2l1-3 3 1z"/><path fill="#9E959A" d="m253 345 2 1-1 3 2.875.313L260 350l2 3c-2.125.625-2.125.625-5 1-3.312-.937-3.312-.937-6-2l-1-5z"/><path fill="#554E4F" d="m272 349 5 1v2h-2l1 4c-7.442 2.109-7.442 2.109-10.266 1.559L264 357v-2c1-1 1-1 3.063-1.562L269 353v2h5v-3l-4-1h2z"/><path fill="#A7A9A8" d="M252 356h9l-1 3c-2.62 1.746-4.038 2.387-7 3v2h-2v6h-1c-.125-7.625-.125-7.625 1-11h3l-2-1z"/><path fill="#282128" d="M381 326c2 2 2 2 2.633 3.945L385 336c-2 .688-2 .688-5 1-2.762-.786-5.372-1.846-8-3l3-2c2.688.875 2.688.875 5 2z"/><path fill="#C0C3C3" d="M271 347c2.375.813 2.375.813 4 2h-3v2l2 1v3l-6 1v-3l-3-1v-2c2.75-1.625 2.75-1.625 6-3"/><path fill="#8E8B8D" d="M213 336c1.875.375 1.875.375 4 1l2 2c.4 2.323.74 4.657 1 7l3 1c.688 2.063.688 2.063 1 4-1.836-.2-1.836-.2-4-1-1.414-2.145-1.414-2.145-2.625-4.812l-1.227-2.645L215 340a399 399 0 0 0-2-4"/><path fill="#7A7C7F" d="M171 321v2c-8.653 4.616-8.653 4.616-13 5l-2-1c1.813-1.5 1.813-1.5 4-3h3v-2c2.709-1.354 5.01-1.065 8-1"/><path fill="#D4D5D4" d="M246 298c1.14 3.422 1.098 6.087 1.063 9.688l-.028 3.574L247 314h-3l-1-2-2 1c3.075-10.558 3.075-10.558 5-15"/><path fill="#0D0A0D" d="m171 320 6 4-1 7h-3c-1.423-3.823-2.24-6.913-2-11"/><path fill="#241D20" d="M245 290h2c1.287 2.573 1.168 4.502 1.188 7.375l.042 2.898c-.233 2.757-.82 4.376-2.23 6.727v-8l-2 1v-5h2z"/><path fill="#8E8B89" d="m255.188 260 1.812 1a125 125 0 0 1 2 5l3 1c-1.812.625-1.812.625-4 1l-3-2c-.687-2.125-.687-2.125-1-4l-7 4 1-3c2.46-1.862 4.061-3 7.188-3"/><path fill="#2F2A2B" d="M301 339h2c.625 3.25.625 3.25 1 7-.937 2.438-.937 2.438-2 4l-3-1c.458-3.47.891-6.674 2-10"/><path fill="#3B3237" d="m248 336 2 3v3h3v5l-2.25-1.375A89 89 0 0 0 244 342h3z"/><path fill="#232022" d="M303 358q2.514.428 5 1l-3 1v2l2 1h-4v5h-1l-1-5-4-1 1-2 3 1 1-2z"/><path fill="#1B181E" d="m288 348 4 1v3c-1.187 1.75-1.187 1.75-3 3-2.687-.312-2.687-.312-5-1l2-2-2-2h4z"/><path fill="#1F181D" d="m369 336 2 1v3l7-1v2c-1.875.563-1.875.563-4 1l-2-1-1 8h-1v-7h-2z"/><path fill="#DCDCD0" d="m226 318 2 1-1.531 1.39-1.969 1.86-1.969 1.828L221 326v4l-4 1-2-4h3c1.873-1.729 1.873-1.729 3.625-3.937l1.852-2.215L225 319z"/><path fill="#424047" d="M302 285c.563 1.875.563 1.875 1 4l-1 2 3-1c.25 3.313.25 3.313 0 7-2 1.938-2 1.938-4 3v-3l2-2-2-3c-.187-3.125-.187-3.125 0-6z"/><path fill="#565257" d="m351 345 6 1v4l-5 2-2-2 2-1z"/><path fill="#3D383F" d="m167 311 3 1 1 9-5 1z"/><path fill="#716E6A" d="m236 342 4.395 3.906L242 347h3l2 1v3l-4 1a496 496 0 0 1-2.937-3.312l-1.653-1.864C237 345 237 345 236 342"/><path fill="#5B6060" d="M253 353c6.395.698 6.395.698 9 2v3l-9-1-1-3z"/><path fill="#636265" d="M354 335c1.609 2.614 2.005 4.122 2.125 7.25L356 345l-4-2v-4l1-1-2-2z"/><path fill="#B3B0B1" d="M172 299c2.188.313 2.188.313 4 1l-1.395 1.207c-1.872 2.092-2.479 3.807-3.292 6.48l-.762 2.45L170 312h-1c-.081-1.603-.14-3.208-.187-4.812l-.106-2.708c.293-2.48.293-2.48 1.668-4.324z"/><path fill="#030102" d="M300 281h8v8h-2l-1-6-5-1z"/><path fill="#7C847D" d="m360 345 3 1-1 8-4-1v5h-1c-.125-5.75-.125-5.75 1-8l2-1z"/><path fill="#EAEFEC" d="M368 336v2l-3 1-1 2 3 1h-6l1-4-2-1c2.709-1.354 5.01-1.065 8-1"/><path fill="#141214" d="M332 217c.625 1.563.625 1.563 1 4a103 103 0 0 1-2 7l-3-2c.313-2.812.313-2.812 1-6 1.563-1.875 1.563-1.875 3-3"/><path fill="#E4D9D9" d="M323 312h2c3 5.75 3 5.75 3 8l-5-1c-.562-1.812-.562-1.812-1-4z"/><path fill="#A4A59F" d="m292 354 9 1v2l-7 1v2l-2-1z"/><path fill="#090708" d="m277 350 4 2-2 2-1 2 2 1h-2l-1 2-4-3h3l-1-4h2z"/><path fill="#E9E6E6" d="m176 328 4 2v4h-3l-1 3c-.664-2.656-1.076-4.6-.562-7.312z"/><path fill="#1B1813" d="m227 315 2 1v2a259 259 0 0 1-5 3c-2.056 1.608-4.02 3.296-6 5 .563-2.125.563-2.125 2-5 2.202-2.171 4.56-4.102 7-6"/><path fill="#5C5B58" d="M283 299c3.403 1.059 6.014 2.009 9 4l2-1v7l-2.125-2.25c-2.098-2.007-3.805-3.46-6.187-5L283 300z"/></svg>